<?xml version="1.0" standalone="no"?>
<!DOCTYPE svg PUBLIC "-//W3C//DTD SVG 20010904//EN"
 "http://www.w3.org/TR/2001/REC-SVG-20010904/DTD/svg10.dtd">
<svg version="1.0" xmlns="http://www.w3.org/2000/svg"
 width="512.000000pt" height="512.000000pt" viewBox="0 0 512.000000 512.000000"
 preserveAspectRatio="xMidYMid meet" fill-rule="evenodd">

<g transform="translate(0.000000,512.000000) scale(0.100000,-0.100000)"
stroke="none">
<path d="M1351 5105 c-218 -49 -399 -215 -467 -430 -32 -99 -37 -253 -11 -352
35 -133 126 -270 231 -347 l66 -48 0 -1368 0 -1368 -66 -48 c-105 -77 -196
-214 -231 -347 -26 -99 -21 -253 11 -352 90 -281 350 -459 646 -442 170 10
290 64 411 183 74 73 120 144 157 242 23 60 26 81 26 207 1 120 -3 149 -21
202 -47 130 -152 269 -250 331 -49 31 -50 36 -33 180 18 161 74 240 227 319
114 60 180 85 513 198 463 156 670 255 867 416 283 231 465 587 502 981 6 62
14 143 17 179 5 64 6 67 43 87 104 59 220 227 257 372 22 86 22 236 -1 320
-40 154 -167 316 -306 393 -174 97 -417 103 -592 16 -171 -85 -300 -244 -342
-422 -19 -81 -19 -227 0 -302 37 -145 135 -291 249 -369 l55 -38 -5 -72 c-18
-265 -54 -378 -171 -533 -135 -180 -266 -250 -793 -428 -280 -94 -390 -135
-492 -179 l-38 -16 0 827 0 828 43 27 c98 62 203 201 250 331 18 53 22 82 21
202 0 126 -3 147 -26 207 -37 98 -83 169 -157 242 -78 77 -162 129 -251 157
-86 27 -252 34 -339 14z m283 -339 c60 -29 113 -82 148 -148 19 -36 23 -58 23
-138 0 -80 -4 -102 -23 -138 -35 -66 -88 -119 -150 -149 -76 -38 -191 -40
-267 -5 -58 27 -129 91 -155 142 -42 83 -44 213 -3 295 20 40 90 113 128 132
95 51 207 54 299 9z m2110 -417 c208 -77 267 -357 110 -520 -92 -95 -254 -120
-374 -59 -111 57 -174 169 -168 300 6 133 82 235 213 287 50 19 157 16 219 -8z
m-2110 -3423 c60 -29 113 -82 148 -148 19 -36 23 -58 23 -138 0 -80 -4 -102
-23 -138 -35 -66 -88 -119 -150 -149 -76 -38 -191 -40 -267 -5 -58 27 -129 91
-155 142 -42 83 -44 213 -3 295 20 40 90 113 128 132 95 51 207 54 299 9z"/>
</g>
</svg>
