<?xml version="1.0" standalone="no"?>
<!DOCTYPE svg PUBLIC "-//W3C//DTD SVG 20010904//EN"
 "http://www.w3.org/TR/2001/REC-SVG-20010904/DTD/svg10.dtd">
<svg version="1.0" xmlns="http://www.w3.org/2000/svg"
 width="24" height="24" viewBox="0 0 512.000000 512.000000"
 preserveAspectRatio="xMidYMid meet" fill-rule="evenodd">

<g transform="translate(0.000000,512.000000) scale(0.100000,-0.100000)"
stroke="none">
<path d="M2748 4570 c-41 -22 -76 -66 -89 -113 -4 -18 -135 -858 -289 -1867
-197 -1287 -280 -1852 -277 -1892 13 -204 314 -233 368 -35 4 18 135 858 289
1867 197 1287 280 1852 277 1892 -4 66 -37 117 -97 149 -46 25 -133 24 -182
-1z"/>
<path d="M1331 4000 c-18 -4 -45 -17 -60 -27 -14 -11 -299 -308 -632 -661
-439 -464 -611 -652 -623 -682 -21 -52 -20 -95 3 -146 12 -26 203 -237 541
-595 775 -822 722 -772 816 -772 140 0 235 154 169 275 -11 20 -258 289 -550
598 -291 308 -530 565 -530 570 0 5 239 262 530 570 292 309 539 578 550 598
75 137 -60 308 -214 272z"/>
<path d="M3704 4000 c-120 -28 -186 -167 -129 -272 11 -20 259 -289 550 -598
292 -308 530 -565 530 -570 0 -5 -238 -262 -530 -570 -360 -382 -537 -577
-553 -608 -59 -121 34 -265 172 -265 94 0 43 -48 816 772 337 358 529 569 541
595 24 52 24 100 0 152 -12 26 -204 237 -541 595 -610 647 -696 736 -730 753
-35 18 -89 25 -126 16z"/>
</g>
</svg>
